<mxfile host="Electron" agent="Mozilla/5.0 (Windows NT 10.0; Win64; x64) AppleWebKit/537.36 (KHTML, like Gecko) draw.io/26.1.1 Chrome/132.0.6834.210 Electron/34.3.3 Safari/537.36" version="26.1.1">
  <diagram name="Page-1" id="XoA868RuWuj9pkEtLbrI">
    <mxGraphModel dx="2074" dy="1196" grid="1" gridSize="10" guides="1" tooltips="1" connect="1" arrows="1" fold="1" page="1" pageScale="1" pageWidth="827" pageHeight="1169" math="0" shadow="0">
      <root>
        <mxCell id="0" />
        <mxCell id="1" parent="0" />
        <mxCell id="zwTfYpXP-W-T_Ir1GxMR-30" style="edgeStyle=orthogonalEdgeStyle;rounded=1;orthogonalLoop=1;jettySize=auto;html=1;exitX=0.5;exitY=0;exitDx=0;exitDy=0;exitPerimeter=0;entryX=0.25;entryY=1;entryDx=0;entryDy=0;fillColor=#ffe6cc;strokeColor=#d79b00;strokeWidth=2;curved=0;jumpStyle=gap;" edge="1" parent="1" source="zwTfYpXP-W-T_Ir1GxMR-8" target="2BP0mcNtexj8iC0AKuNT-5">
          <mxGeometry relative="1" as="geometry">
            <Array as="points">
              <mxPoint x="431" y="300" />
              <mxPoint x="558" y="300" />
            </Array>
          </mxGeometry>
        </mxCell>
        <mxCell id="zwTfYpXP-W-T_Ir1GxMR-47" style="edgeStyle=orthogonalEdgeStyle;rounded=1;orthogonalLoop=1;jettySize=auto;html=1;exitX=0.5;exitY=1;exitDx=0;exitDy=0;entryX=0;entryY=0.25;entryDx=0;entryDy=0;entryPerimeter=0;fillColor=#ffe6cc;strokeColor=#d79b00;curved=0;strokeWidth=2;jumpStyle=gap;" edge="1" parent="1" source="2BP0mcNtexj8iC0AKuNT-5" target="zwTfYpXP-W-T_Ir1GxMR-3">
          <mxGeometry relative="1" as="geometry">
            <Array as="points">
              <mxPoint x="585" y="300" />
              <mxPoint x="600" y="300" />
              <mxPoint x="600" y="546" />
            </Array>
          </mxGeometry>
        </mxCell>
        <mxCell id="2BP0mcNtexj8iC0AKuNT-1" value="Data Bucket&lt;div&gt;(Sleeper table directory)&lt;/div&gt;" style="fillColor=none;strokeColor=#5A6C86;dashed=1;verticalAlign=top;fontStyle=0;fontColor=#5A6C86;whiteSpace=wrap;html=1;align=left;spacingLeft=5;fontSize=14;" parent="1" vertex="1">
          <mxGeometry x="400" y="140" width="260" height="140" as="geometry" />
        </mxCell>
        <mxCell id="2BP0mcNtexj8iC0AKuNT-2" value="" style="sketch=0;points=[[0,0,0],[0.25,0,0],[0.5,0,0],[0.75,0,0],[1,0,0],[0,1,0],[0.25,1,0],[0.5,1,0],[0.75,1,0],[1,1,0],[0,0.25,0],[0,0.5,0],[0,0.75,0],[1,0.25,0],[1,0.5,0],[1,0.75,0]];outlineConnect=0;fontColor=#232F3E;fillColor=#7AA116;strokeColor=#ffffff;dashed=0;verticalLabelPosition=bottom;verticalAlign=top;align=center;html=1;fontSize=12;fontStyle=0;aspect=fixed;shape=mxgraph.aws4.resourceIcon;resIcon=mxgraph.aws4.s3;" parent="1" vertex="1">
          <mxGeometry x="620" y="140" width="40" height="40" as="geometry" />
        </mxCell>
        <mxCell id="2BP0mcNtexj8iC0AKuNT-4" value="Snapshot Files" style="text;html=1;align=center;verticalAlign=middle;whiteSpace=wrap;rounded=0;fontSize=16;" parent="1" vertex="1">
          <mxGeometry x="430" y="210" width="80" height="40" as="geometry" />
        </mxCell>
        <mxCell id="2BP0mcNtexj8iC0AKuNT-5" value="Large Transaction Body Store" style="text;html=1;align=center;verticalAlign=middle;whiteSpace=wrap;rounded=0;fontSize=16;" parent="1" vertex="1">
          <mxGeometry x="530" y="200" width="110" height="60" as="geometry" />
        </mxCell>
        <mxCell id="2BP0mcNtexj8iC0AKuNT-21" value="" style="sketch=0;points=[[0,0,0],[0.25,0,0],[0.5,0,0],[0.75,0,0],[1,0,0],[0,1,0],[0.25,1,0],[0.5,1,0],[0.75,1,0],[1,1,0],[0,0.25,0],[0,0.5,0],[0,0.75,0],[1,0.25,0],[1,0.5,0],[1,0.75,0]];outlineConnect=0;fontColor=#232F3E;fillColor=#C925D1;strokeColor=#ffffff;dashed=0;verticalLabelPosition=bottom;verticalAlign=top;align=center;html=1;fontSize=12;fontStyle=0;aspect=fixed;shape=mxgraph.aws4.resourceIcon;resIcon=mxgraph.aws4.dynamodb;" parent="1" vertex="1">
          <mxGeometry x="700" y="410" width="60" height="60" as="geometry" />
        </mxCell>
        <mxCell id="2BP0mcNtexj8iC0AKuNT-22" value="Latest Snapshots" style="text;html=1;align=center;verticalAlign=middle;whiteSpace=wrap;rounded=0;fontSize=16;" parent="1" vertex="1">
          <mxGeometry x="680" y="470" width="100" height="50" as="geometry" />
        </mxCell>
        <mxCell id="2BP0mcNtexj8iC0AKuNT-51" value="" style="sketch=0;points=[[0,0,0],[0.25,0,0],[0.5,0,0],[0.75,0,0],[1,0,0],[0,1,0],[0.25,1,0],[0.5,1,0],[0.75,1,0],[1,1,0],[0,0.25,0],[0,0.5,0],[0,0.75,0],[1,0.25,0],[1,0.5,0],[1,0.75,0]];outlineConnect=0;fontColor=#232F3E;fillColor=#C925D1;strokeColor=#ffffff;dashed=0;verticalLabelPosition=bottom;verticalAlign=top;align=center;html=1;fontSize=12;fontStyle=0;aspect=fixed;shape=mxgraph.aws4.resourceIcon;resIcon=mxgraph.aws4.dynamodb;" parent="1" vertex="1">
          <mxGeometry x="700" y="300" width="60" height="60" as="geometry" />
        </mxCell>
        <mxCell id="2BP0mcNtexj8iC0AKuNT-52" value="All Snapshots" style="text;html=1;align=center;verticalAlign=middle;whiteSpace=wrap;rounded=0;fontSize=16;" parent="1" vertex="1">
          <mxGeometry x="680" y="360" width="100" height="30" as="geometry" />
        </mxCell>
        <mxCell id="2BP0mcNtexj8iC0AKuNT-76" value="" style="sketch=0;points=[[0,0,0],[0.25,0,0],[0.5,0,0],[0.75,0,0],[1,0,0],[0,1,0],[0.25,1,0],[0.5,1,0],[0.75,1,0],[1,1,0],[0,0.25,0],[0,0.5,0],[0,0.75,0],[1,0.25,0],[1,0.5,0],[1,0.75,0]];outlineConnect=0;fontColor=#232F3E;fillColor=#E7157B;strokeColor=#ffffff;dashed=0;verticalLabelPosition=bottom;verticalAlign=top;align=center;html=1;fontSize=12;fontStyle=0;aspect=fixed;shape=mxgraph.aws4.resourceIcon;resIcon=mxgraph.aws4.sqs;" parent="1" vertex="1">
          <mxGeometry x="40" y="500" width="40" height="40" as="geometry" />
        </mxCell>
        <mxCell id="2BP0mcNtexj8iC0AKuNT-77" value="SQS" style="text;html=1;strokeColor=none;fillColor=none;align=left;verticalAlign=middle;whiteSpace=wrap;rounded=0;fontSize=16;" parent="1" vertex="1">
          <mxGeometry x="90" y="500" width="100" height="40" as="geometry" />
        </mxCell>
        <mxCell id="2BP0mcNtexj8iC0AKuNT-80" value="" style="sketch=0;points=[[0,0,0],[0.25,0,0],[0.5,0,0],[0.75,0,0],[1,0,0],[0,1,0],[0.25,1,0],[0.5,1,0],[0.75,1,0],[1,1,0],[0,0.25,0],[0,0.5,0],[0,0.75,0],[1,0.25,0],[1,0.5,0],[1,0.75,0]];outlineConnect=0;fontColor=#232F3E;fillColor=#ED7100;strokeColor=#ffffff;dashed=0;verticalLabelPosition=bottom;verticalAlign=top;align=center;html=1;fontSize=12;fontStyle=0;aspect=fixed;shape=mxgraph.aws4.resourceIcon;resIcon=mxgraph.aws4.lambda;" parent="1" vertex="1">
          <mxGeometry x="40" y="550" width="40" height="40" as="geometry" />
        </mxCell>
        <mxCell id="2BP0mcNtexj8iC0AKuNT-83" value="Lambda" style="text;html=1;strokeColor=none;fillColor=none;align=left;verticalAlign=middle;whiteSpace=wrap;rounded=0;fontSize=16;" parent="1" vertex="1">
          <mxGeometry x="90" y="550" width="100" height="40" as="geometry" />
        </mxCell>
        <mxCell id="2BP0mcNtexj8iC0AKuNT-88" value="" style="sketch=0;points=[[0,0,0],[0.25,0,0],[0.5,0,0],[0.75,0,0],[1,0,0],[0,1,0],[0.25,1,0],[0.5,1,0],[0.75,1,0],[1,1,0],[0,0.25,0],[0,0.5,0],[0,0.75,0],[1,0.25,0],[1,0.5,0],[1,0.75,0]];outlineConnect=0;fontColor=#232F3E;fillColor=#C925D1;strokeColor=#ffffff;dashed=0;verticalLabelPosition=bottom;verticalAlign=top;align=center;html=1;fontSize=12;fontStyle=0;aspect=fixed;shape=mxgraph.aws4.resourceIcon;resIcon=mxgraph.aws4.dynamodb;" parent="1" vertex="1">
          <mxGeometry x="40" y="650" width="40" height="40" as="geometry" />
        </mxCell>
        <mxCell id="2BP0mcNtexj8iC0AKuNT-89" value="DynamoDB" style="text;html=1;strokeColor=none;fillColor=none;align=left;verticalAlign=middle;whiteSpace=wrap;rounded=0;fontSize=16;" parent="1" vertex="1">
          <mxGeometry x="90" y="650" width="100" height="40" as="geometry" />
        </mxCell>
        <mxCell id="2BP0mcNtexj8iC0AKuNT-90" value="" style="sketch=0;points=[[0,0,0],[0.25,0,0],[0.5,0,0],[0.75,0,0],[1,0,0],[0,1,0],[0.25,1,0],[0.5,1,0],[0.75,1,0],[1,1,0],[0,0.25,0],[0,0.5,0],[0,0.75,0],[1,0.25,0],[1,0.5,0],[1,0.75,0]];outlineConnect=0;fontColor=#232F3E;fillColor=#7AA116;strokeColor=#ffffff;dashed=0;verticalLabelPosition=bottom;verticalAlign=top;align=center;html=1;fontSize=12;fontStyle=0;aspect=fixed;shape=mxgraph.aws4.resourceIcon;resIcon=mxgraph.aws4.s3;" parent="1" vertex="1">
          <mxGeometry x="40" y="600" width="40" height="40" as="geometry" />
        </mxCell>
        <mxCell id="2BP0mcNtexj8iC0AKuNT-91" value="S3" style="text;html=1;strokeColor=none;fillColor=none;align=left;verticalAlign=middle;whiteSpace=wrap;rounded=0;fontSize=16;" parent="1" vertex="1">
          <mxGeometry x="90" y="600" width="100" height="40" as="geometry" />
        </mxCell>
        <mxCell id="2BP0mcNtexj8iC0AKuNT-92" value="Legend" style="text;html=1;strokeColor=none;fillColor=none;align=left;verticalAlign=middle;whiteSpace=wrap;rounded=0;fontSize=18;" parent="1" vertex="1">
          <mxGeometry x="50" y="150" width="60" height="30" as="geometry" />
        </mxCell>
        <mxCell id="2BP0mcNtexj8iC0AKuNT-94" value="Log entries" style="text;html=1;strokeColor=none;fillColor=none;align=left;verticalAlign=middle;whiteSpace=wrap;rounded=0;fontSize=16;" parent="1" vertex="1">
          <mxGeometry x="90" y="200" width="100" height="40" as="geometry" />
        </mxCell>
        <mxCell id="2BP0mcNtexj8iC0AKuNT-95" value="" style="endArrow=classic;html=1;rounded=0;fontSize=12;startSize=8;endSize=8;curved=1;fillColor=#fff2cc;strokeColor=#d6b656;strokeWidth=2;" parent="1" edge="1">
          <mxGeometry width="50" height="50" relative="1" as="geometry">
            <mxPoint x="40" y="270" as="sourcePoint" />
            <mxPoint x="80" y="270" as="targetPoint" />
          </mxGeometry>
        </mxCell>
        <mxCell id="2BP0mcNtexj8iC0AKuNT-96" value="Large transactions" style="text;html=1;strokeColor=none;fillColor=none;align=left;verticalAlign=middle;whiteSpace=wrap;rounded=0;fontSize=16;" parent="1" vertex="1">
          <mxGeometry x="90" y="250" width="100" height="40" as="geometry" />
        </mxCell>
        <mxCell id="2BP0mcNtexj8iC0AKuNT-97" value="" style="endArrow=classic;html=1;rounded=0;fontSize=12;startSize=6;endSize=6;curved=1;strokeWidth=2;fillColor=#f5f5f5;strokeColor=#666666;" parent="1" edge="1">
          <mxGeometry width="50" height="50" relative="1" as="geometry">
            <mxPoint x="40" y="320" as="sourcePoint" />
            <mxPoint x="80" y="320" as="targetPoint" />
          </mxGeometry>
        </mxCell>
        <mxCell id="2BP0mcNtexj8iC0AKuNT-98" value="Snapshot metadata" style="text;html=1;strokeColor=none;fillColor=none;align=left;verticalAlign=middle;whiteSpace=wrap;rounded=0;fontSize=16;" parent="1" vertex="1">
          <mxGeometry x="90" y="300" width="100" height="40" as="geometry" />
        </mxCell>
        <mxCell id="2BP0mcNtexj8iC0AKuNT-114" value="" style="endArrow=classic;html=1;rounded=0;fontSize=12;startSize=8;endSize=8;curved=1;fillColor=#d5e8d4;strokeColor=#82b366;strokeWidth=2;" parent="1" edge="1">
          <mxGeometry width="50" height="50" relative="1" as="geometry">
            <mxPoint x="40" y="220" as="sourcePoint" />
            <mxPoint x="80" y="220" as="targetPoint" />
          </mxGeometry>
        </mxCell>
        <mxCell id="2BP0mcNtexj8iC0AKuNT-115" value="" style="endArrow=classic;html=1;rounded=0;fontSize=12;startSize=6;endSize=6;curved=1;strokeWidth=2;fillColor=#dae8fc;strokeColor=#6c8ebf;" parent="1" edge="1">
          <mxGeometry width="50" height="50" relative="1" as="geometry">
            <mxPoint x="40" y="370" as="sourcePoint" />
            <mxPoint x="80" y="370" as="targetPoint" />
          </mxGeometry>
        </mxCell>
        <mxCell id="2BP0mcNtexj8iC0AKuNT-116" value="Snapshots" style="text;html=1;strokeColor=none;fillColor=none;align=left;verticalAlign=middle;whiteSpace=wrap;rounded=0;fontSize=16;" parent="1" vertex="1">
          <mxGeometry x="90" y="350" width="100" height="40" as="geometry" />
        </mxCell>
        <mxCell id="zwTfYpXP-W-T_Ir1GxMR-1" value="" style="sketch=0;points=[[0,0,0],[0.25,0,0],[0.5,0,0],[0.75,0,0],[1,0,0],[0,1,0],[0.25,1,0],[0.5,1,0],[0.75,1,0],[1,1,0],[0,0.25,0],[0,0.5,0],[0,0.75,0],[1,0.25,0],[1,0.5,0],[1,0.75,0]];outlineConnect=0;fontColor=#232F3E;fillColor=#C925D1;strokeColor=#ffffff;dashed=0;verticalLabelPosition=bottom;verticalAlign=top;align=center;html=1;fontSize=12;fontStyle=0;aspect=fixed;shape=mxgraph.aws4.resourceIcon;resIcon=mxgraph.aws4.dynamodb;" vertex="1" parent="1">
          <mxGeometry x="300" y="350" width="60" height="60" as="geometry" />
        </mxCell>
        <mxCell id="zwTfYpXP-W-T_Ir1GxMR-2" value="Transaction Logs" style="text;html=1;align=center;verticalAlign=middle;whiteSpace=wrap;rounded=0;fontSize=16;" vertex="1" parent="1">
          <mxGeometry x="280" y="410" width="100" height="50" as="geometry" />
        </mxCell>
        <mxCell id="zwTfYpXP-W-T_Ir1GxMR-48" style="edgeStyle=orthogonalEdgeStyle;rounded=1;orthogonalLoop=1;jettySize=auto;html=1;exitX=0.25;exitY=0;exitDx=0;exitDy=0;exitPerimeter=0;entryX=0.5;entryY=1;entryDx=0;entryDy=0;fillColor=#dae8fc;strokeColor=#6c8ebf;curved=0;strokeWidth=2;startArrow=classic;startFill=1;jumpStyle=gap;" edge="1" parent="1" source="zwTfYpXP-W-T_Ir1GxMR-3" target="2BP0mcNtexj8iC0AKuNT-4">
          <mxGeometry relative="1" as="geometry">
            <Array as="points">
              <mxPoint x="636" y="320" />
              <mxPoint x="470" y="320" />
            </Array>
          </mxGeometry>
        </mxCell>
        <mxCell id="zwTfYpXP-W-T_Ir1GxMR-3" value="" style="sketch=0;points=[[0,0,0],[0.25,0,0],[0.5,0,0],[0.75,0,0],[1,0,0],[0,1,0],[0.25,1,0],[0.5,1,0],[0.75,1,0],[1,1,0],[0,0.25,0],[0,0.5,0],[0,0.75,0],[1,0.25,0],[1,0.5,0],[1,0.75,0]];outlineConnect=0;fontColor=#232F3E;fillColor=#ED7100;strokeColor=#ffffff;dashed=0;verticalLabelPosition=bottom;verticalAlign=top;align=center;html=1;fontSize=12;fontStyle=0;aspect=fixed;shape=mxgraph.aws4.resourceIcon;resIcon=mxgraph.aws4.lambda;" vertex="1" parent="1">
          <mxGeometry x="621" y="531" width="59" height="59" as="geometry" />
        </mxCell>
        <mxCell id="zwTfYpXP-W-T_Ir1GxMR-4" value="Snapshot Creation" style="text;html=1;align=center;verticalAlign=middle;whiteSpace=wrap;rounded=0;fontSize=16;" vertex="1" parent="1">
          <mxGeometry x="600" y="590" width="100" height="50" as="geometry" />
        </mxCell>
        <mxCell id="zwTfYpXP-W-T_Ir1GxMR-6" value="" style="sketch=0;points=[[0,0,0],[0.25,0,0],[0.5,0,0],[0.75,0,0],[1,0,0],[0,1,0],[0.25,1,0],[0.5,1,0],[0.75,1,0],[1,1,0],[0,0.25,0],[0,0.5,0],[0,0.75,0],[1,0.25,0],[1,0.5,0],[1,0.75,0]];outlineConnect=0;fontColor=#232F3E;fillColor=#ED7100;strokeColor=#ffffff;dashed=0;verticalLabelPosition=bottom;verticalAlign=top;align=center;html=1;fontSize=12;fontStyle=0;aspect=fixed;shape=mxgraph.aws4.resourceIcon;resIcon=mxgraph.aws4.lambda;" vertex="1" parent="1">
          <mxGeometry x="511" y="531" width="59" height="59" as="geometry" />
        </mxCell>
        <mxCell id="zwTfYpXP-W-T_Ir1GxMR-7" value="Snapshot Deletion" style="text;html=1;align=center;verticalAlign=middle;whiteSpace=wrap;rounded=0;fontSize=16;" vertex="1" parent="1">
          <mxGeometry x="490" y="590" width="100" height="50" as="geometry" />
        </mxCell>
        <mxCell id="zwTfYpXP-W-T_Ir1GxMR-8" value="" style="sketch=0;points=[[0,0,0],[0.25,0,0],[0.5,0,0],[0.75,0,0],[1,0,0],[0,1,0],[0.25,1,0],[0.5,1,0],[0.75,1,0],[1,1,0],[0,0.25,0],[0,0.5,0],[0,0.75,0],[1,0.25,0],[1,0.5,0],[1,0.75,0]];outlineConnect=0;fontColor=#232F3E;fillColor=#ED7100;strokeColor=#ffffff;dashed=0;verticalLabelPosition=bottom;verticalAlign=top;align=center;html=1;fontSize=12;fontStyle=0;aspect=fixed;shape=mxgraph.aws4.resourceIcon;resIcon=mxgraph.aws4.lambda;" vertex="1" parent="1">
          <mxGeometry x="401" y="531" width="59" height="59" as="geometry" />
        </mxCell>
        <mxCell id="zwTfYpXP-W-T_Ir1GxMR-9" value="Transaction Deletion" style="text;html=1;align=center;verticalAlign=middle;whiteSpace=wrap;rounded=0;fontSize=16;" vertex="1" parent="1">
          <mxGeometry x="380" y="590" width="100" height="50" as="geometry" />
        </mxCell>
        <mxCell id="zwTfYpXP-W-T_Ir1GxMR-26" style="edgeStyle=orthogonalEdgeStyle;rounded=1;orthogonalLoop=1;jettySize=auto;html=1;exitX=0.25;exitY=0;exitDx=0;exitDy=0;exitPerimeter=0;entryX=1;entryY=0.75;entryDx=0;entryDy=0;entryPerimeter=0;fillColor=#d5e8d4;strokeColor=#82b366;strokeWidth=2;curved=0;jumpStyle=none;" edge="1" parent="1" source="zwTfYpXP-W-T_Ir1GxMR-8" target="zwTfYpXP-W-T_Ir1GxMR-1">
          <mxGeometry relative="1" as="geometry" />
        </mxCell>
        <mxCell id="zwTfYpXP-W-T_Ir1GxMR-31" value="" style="sketch=0;points=[[0,0,0],[0.25,0,0],[0.5,0,0],[0.75,0,0],[1,0,0],[0,1,0],[0.25,1,0],[0.5,1,0],[0.75,1,0],[1,1,0],[0,0.25,0],[0,0.5,0],[0,0.75,0],[1,0.25,0],[1,0.5,0],[1,0.75,0]];outlineConnect=0;fontColor=#232F3E;fillColor=#E7157B;strokeColor=#ffffff;dashed=0;verticalLabelPosition=bottom;verticalAlign=top;align=center;html=1;fontSize=12;fontStyle=0;aspect=fixed;shape=mxgraph.aws4.resourceIcon;resIcon=mxgraph.aws4.eventbridge;" vertex="1" parent="1">
          <mxGeometry x="40" y="450" width="40" height="40" as="geometry" />
        </mxCell>
        <mxCell id="zwTfYpXP-W-T_Ir1GxMR-32" value="EventBridge" style="text;html=1;strokeColor=none;fillColor=none;align=left;verticalAlign=middle;whiteSpace=wrap;rounded=0;fontSize=16;" vertex="1" parent="1">
          <mxGeometry x="90" y="450" width="100" height="40" as="geometry" />
        </mxCell>
        <mxCell id="zwTfYpXP-W-T_Ir1GxMR-33" value="" style="sketch=0;points=[[0,0,0],[0.25,0,0],[0.5,0,0],[0.75,0,0],[1,0,0],[0,1,0],[0.25,1,0],[0.5,1,0],[0.75,1,0],[1,1,0],[0,0.25,0],[0,0.5,0],[0,0.75,0],[1,0.25,0],[1,0.5,0],[1,0.75,0]];outlineConnect=0;fontColor=#232F3E;fillColor=#E7157B;strokeColor=#ffffff;dashed=0;verticalLabelPosition=bottom;verticalAlign=top;align=center;html=1;fontSize=12;fontStyle=0;aspect=fixed;shape=mxgraph.aws4.resourceIcon;resIcon=mxgraph.aws4.eventbridge;" vertex="1" parent="1">
          <mxGeometry x="390" y="660" width="60" height="60" as="geometry" />
        </mxCell>
        <mxCell id="zwTfYpXP-W-T_Ir1GxMR-34" value="" style="sketch=0;points=[[0,0,0],[0.25,0,0],[0.5,0,0],[0.75,0,0],[1,0,0],[0,1,0],[0.25,1,0],[0.5,1,0],[0.75,1,0],[1,1,0],[0,0.25,0],[0,0.5,0],[0,0.75,0],[1,0.25,0],[1,0.5,0],[1,0.75,0]];outlineConnect=0;fontColor=#232F3E;fillColor=#C925D1;strokeColor=#ffffff;dashed=0;verticalLabelPosition=bottom;verticalAlign=top;align=center;html=1;fontSize=12;fontStyle=0;aspect=fixed;shape=mxgraph.aws4.resourceIcon;resIcon=mxgraph.aws4.dynamodb;" vertex="1" parent="1">
          <mxGeometry x="510" y="790" width="60" height="60" as="geometry" />
        </mxCell>
        <mxCell id="zwTfYpXP-W-T_Ir1GxMR-35" value="Sleeper Table Index" style="text;html=1;align=center;verticalAlign=middle;whiteSpace=wrap;rounded=0;fontSize=16;" vertex="1" parent="1">
          <mxGeometry x="490" y="850" width="100" height="50" as="geometry" />
        </mxCell>
        <mxCell id="zwTfYpXP-W-T_Ir1GxMR-36" value="Trigger Schedule" style="text;html=1;align=center;verticalAlign=middle;whiteSpace=wrap;rounded=0;fontSize=16;" vertex="1" parent="1">
          <mxGeometry x="370" y="720" width="100" height="50" as="geometry" />
        </mxCell>
        <mxCell id="zwTfYpXP-W-T_Ir1GxMR-37" value="" style="sketch=0;points=[[0,0,0],[0.25,0,0],[0.5,0,0],[0.75,0,0],[1,0,0],[0,1,0],[0.25,1,0],[0.5,1,0],[0.75,1,0],[1,1,0],[0,0.25,0],[0,0.5,0],[0,0.75,0],[1,0.25,0],[1,0.5,0],[1,0.75,0]];outlineConnect=0;fontColor=#232F3E;fillColor=#ED7100;strokeColor=#ffffff;dashed=0;verticalLabelPosition=bottom;verticalAlign=top;align=center;html=1;fontSize=12;fontStyle=0;aspect=fixed;shape=mxgraph.aws4.resourceIcon;resIcon=mxgraph.aws4.lambda;" vertex="1" parent="1">
          <mxGeometry x="511" y="660" width="59" height="59" as="geometry" />
        </mxCell>
        <mxCell id="zwTfYpXP-W-T_Ir1GxMR-38" value="Trigger Lambda" style="text;html=1;align=center;verticalAlign=middle;whiteSpace=wrap;rounded=0;fontSize=16;" vertex="1" parent="1">
          <mxGeometry x="490" y="719" width="100" height="50" as="geometry" />
        </mxCell>
        <mxCell id="zwTfYpXP-W-T_Ir1GxMR-49" style="edgeStyle=orthogonalEdgeStyle;rounded=1;orthogonalLoop=1;jettySize=auto;html=1;exitX=0.5;exitY=0;exitDx=0;exitDy=0;exitPerimeter=0;entryX=0;entryY=0.5;entryDx=0;entryDy=0;entryPerimeter=0;fillColor=#f5f5f5;strokeColor=#666666;curved=0;strokeWidth=2;jumpStyle=gap;" edge="1" parent="1" source="zwTfYpXP-W-T_Ir1GxMR-6" target="2BP0mcNtexj8iC0AKuNT-51">
          <mxGeometry relative="1" as="geometry" />
        </mxCell>
        <mxCell id="zwTfYpXP-W-T_Ir1GxMR-51" style="edgeStyle=orthogonalEdgeStyle;rounded=1;orthogonalLoop=1;jettySize=auto;html=1;exitX=0.5;exitY=0;exitDx=0;exitDy=0;exitPerimeter=0;entryX=0;entryY=0.75;entryDx=0;entryDy=0;entryPerimeter=0;fillColor=#f5f5f5;strokeColor=#666666;curved=0;strokeWidth=2;startArrow=none;startFill=0;" edge="1" parent="1" source="zwTfYpXP-W-T_Ir1GxMR-3" target="2BP0mcNtexj8iC0AKuNT-51">
          <mxGeometry relative="1" as="geometry" />
        </mxCell>
        <mxCell id="zwTfYpXP-W-T_Ir1GxMR-52" style="edgeStyle=orthogonalEdgeStyle;rounded=1;orthogonalLoop=1;jettySize=auto;html=1;exitX=0.75;exitY=0;exitDx=0;exitDy=0;exitPerimeter=0;entryX=0;entryY=0.75;entryDx=0;entryDy=0;entryPerimeter=0;fillColor=#f5f5f5;strokeColor=#666666;curved=0;strokeWidth=2;startArrow=classic;startFill=1;" edge="1" parent="1" source="zwTfYpXP-W-T_Ir1GxMR-3" target="2BP0mcNtexj8iC0AKuNT-21">
          <mxGeometry relative="1" as="geometry" />
        </mxCell>
        <mxCell id="zwTfYpXP-W-T_Ir1GxMR-41" style="edgeStyle=orthogonalEdgeStyle;rounded=1;orthogonalLoop=1;jettySize=auto;html=1;exitX=0.25;exitY=0;exitDx=0;exitDy=0;exitPerimeter=0;entryX=0.25;entryY=1;entryDx=0;entryDy=0;fillColor=#dae8fc;strokeColor=#6c8ebf;curved=0;strokeWidth=2;jumpStyle=gap;" edge="1" parent="1" source="zwTfYpXP-W-T_Ir1GxMR-6" target="2BP0mcNtexj8iC0AKuNT-4">
          <mxGeometry relative="1" as="geometry">
            <Array as="points">
              <mxPoint x="526" y="330" />
              <mxPoint x="450" y="330" />
            </Array>
          </mxGeometry>
        </mxCell>
        <mxCell id="zwTfYpXP-W-T_Ir1GxMR-44" style="edgeStyle=orthogonalEdgeStyle;rounded=1;orthogonalLoop=1;jettySize=auto;html=1;exitX=1;exitY=0.5;exitDx=0;exitDy=0;exitPerimeter=0;entryX=0;entryY=0.5;entryDx=0;entryDy=0;entryPerimeter=0;fillColor=#d5e8d4;strokeColor=#82b366;curved=0;strokeWidth=2;jumpStyle=gap;" edge="1" parent="1" source="zwTfYpXP-W-T_Ir1GxMR-1" target="zwTfYpXP-W-T_Ir1GxMR-3">
          <mxGeometry relative="1" as="geometry">
            <Array as="points">
              <mxPoint x="590" y="380" />
              <mxPoint x="590" y="561" />
            </Array>
          </mxGeometry>
        </mxCell>
        <mxCell id="zwTfYpXP-W-T_Ir1GxMR-54" style="edgeStyle=orthogonalEdgeStyle;rounded=1;orthogonalLoop=1;jettySize=auto;html=1;exitX=0;exitY=0.25;exitDx=0;exitDy=0;exitPerimeter=0;entryX=0.75;entryY=0;entryDx=0;entryDy=0;entryPerimeter=0;fillColor=#f5f5f5;strokeColor=#666666;curved=0;strokeWidth=2;jumpStyle=gap;" edge="1" parent="1" source="2BP0mcNtexj8iC0AKuNT-21" target="zwTfYpXP-W-T_Ir1GxMR-8">
          <mxGeometry relative="1" as="geometry" />
        </mxCell>
        <mxCell id="zwTfYpXP-W-T_Ir1GxMR-53" style="edgeStyle=orthogonalEdgeStyle;rounded=1;orthogonalLoop=1;jettySize=auto;html=1;exitX=0;exitY=0.5;exitDx=0;exitDy=0;exitPerimeter=0;entryX=0.75;entryY=0;entryDx=0;entryDy=0;entryPerimeter=0;fillColor=#f5f5f5;strokeColor=#666666;curved=0;strokeWidth=2;jumpStyle=gap;" edge="1" parent="1" source="2BP0mcNtexj8iC0AKuNT-21" target="zwTfYpXP-W-T_Ir1GxMR-6">
          <mxGeometry relative="1" as="geometry" />
        </mxCell>
        <mxCell id="zwTfYpXP-W-T_Ir1GxMR-55" style="edgeStyle=orthogonalEdgeStyle;rounded=1;orthogonalLoop=1;jettySize=auto;html=1;exitX=1;exitY=0.5;exitDx=0;exitDy=0;exitPerimeter=0;entryX=1;entryY=0.75;entryDx=0;entryDy=0;entryPerimeter=0;curved=0;" edge="1" parent="1" source="zwTfYpXP-W-T_Ir1GxMR-34" target="zwTfYpXP-W-T_Ir1GxMR-37">
          <mxGeometry relative="1" as="geometry" />
        </mxCell>
        <mxCell id="zwTfYpXP-W-T_Ir1GxMR-56" style="edgeStyle=orthogonalEdgeStyle;rounded=0;orthogonalLoop=1;jettySize=auto;html=1;exitX=1;exitY=0.5;exitDx=0;exitDy=0;exitPerimeter=0;entryX=0;entryY=0.5;entryDx=0;entryDy=0;entryPerimeter=0;" edge="1" parent="1" source="zwTfYpXP-W-T_Ir1GxMR-33" target="zwTfYpXP-W-T_Ir1GxMR-37">
          <mxGeometry relative="1" as="geometry" />
        </mxCell>
        <mxCell id="zwTfYpXP-W-T_Ir1GxMR-57" value="" style="sketch=0;points=[[0,0,0],[0.25,0,0],[0.5,0,0],[0.75,0,0],[1,0,0],[0,1,0],[0.25,1,0],[0.5,1,0],[0.75,1,0],[1,1,0],[0,0.25,0],[0,0.5,0],[0,0.75,0],[1,0.25,0],[1,0.5,0],[1,0.75,0]];outlineConnect=0;fontColor=#232F3E;fillColor=#E7157B;strokeColor=#ffffff;dashed=0;verticalLabelPosition=bottom;verticalAlign=top;align=center;html=1;fontSize=12;fontStyle=0;aspect=fixed;shape=mxgraph.aws4.resourceIcon;resIcon=mxgraph.aws4.sqs;" vertex="1" parent="1">
          <mxGeometry x="630" y="660" width="60" height="60" as="geometry" />
        </mxCell>
        <mxCell id="zwTfYpXP-W-T_Ir1GxMR-58" style="edgeStyle=orthogonalEdgeStyle;rounded=0;orthogonalLoop=1;jettySize=auto;html=1;exitX=1;exitY=0.5;exitDx=0;exitDy=0;exitPerimeter=0;entryX=0;entryY=0.5;entryDx=0;entryDy=0;entryPerimeter=0;" edge="1" parent="1" source="zwTfYpXP-W-T_Ir1GxMR-37" target="zwTfYpXP-W-T_Ir1GxMR-57">
          <mxGeometry relative="1" as="geometry" />
        </mxCell>
        <mxCell id="zwTfYpXP-W-T_Ir1GxMR-60" style="edgeStyle=orthogonalEdgeStyle;rounded=1;orthogonalLoop=1;jettySize=auto;html=1;exitX=1;exitY=0.5;exitDx=0;exitDy=0;exitPerimeter=0;entryX=1;entryY=0.5;entryDx=0;entryDy=0;entryPerimeter=0;curved=0;" edge="1" parent="1" source="zwTfYpXP-W-T_Ir1GxMR-57" target="zwTfYpXP-W-T_Ir1GxMR-3">
          <mxGeometry relative="1" as="geometry" />
        </mxCell>
        <mxCell id="zwTfYpXP-W-T_Ir1GxMR-61" value="Trigger Queue" style="text;html=1;align=center;verticalAlign=middle;whiteSpace=wrap;rounded=0;fontSize=16;" vertex="1" parent="1">
          <mxGeometry x="610" y="719" width="100" height="50" as="geometry" />
        </mxCell>
        <mxCell id="zwTfYpXP-W-T_Ir1GxMR-64" value="" style="endArrow=classic;html=1;rounded=0;fontSize=12;startSize=6;endSize=6;curved=1;strokeWidth=1;" edge="1" parent="1">
          <mxGeometry width="50" height="50" relative="1" as="geometry">
            <mxPoint x="40" y="420" as="sourcePoint" />
            <mxPoint x="80" y="420" as="targetPoint" />
          </mxGeometry>
        </mxCell>
        <mxCell id="zwTfYpXP-W-T_Ir1GxMR-65" value="Table trigger invocations" style="text;html=1;strokeColor=none;fillColor=none;align=left;verticalAlign=middle;whiteSpace=wrap;rounded=0;fontSize=16;" vertex="1" parent="1">
          <mxGeometry x="90" y="400" width="100" height="40" as="geometry" />
        </mxCell>
        <mxCell id="zwTfYpXP-W-T_Ir1GxMR-66" value="..." style="text;html=1;align=center;verticalAlign=middle;whiteSpace=wrap;rounded=0;fontSize=18;fontStyle=1" vertex="1" parent="1">
          <mxGeometry x="580" y="630" width="20" height="20" as="geometry" />
        </mxCell>
        <mxCell id="zwTfYpXP-W-T_Ir1GxMR-68" style="edgeStyle=orthogonalEdgeStyle;rounded=1;orthogonalLoop=1;jettySize=auto;html=1;exitX=0.5;exitY=0;exitDx=0;exitDy=0;entryX=1;entryY=0.5;entryDx=0;entryDy=0;entryPerimeter=0;curved=0;" edge="1" parent="1" source="zwTfYpXP-W-T_Ir1GxMR-66" target="zwTfYpXP-W-T_Ir1GxMR-6">
          <mxGeometry relative="1" as="geometry" />
        </mxCell>
        <mxCell id="zwTfYpXP-W-T_Ir1GxMR-69" value="..." style="text;html=1;align=center;verticalAlign=middle;whiteSpace=wrap;rounded=0;fontSize=18;fontStyle=1" vertex="1" parent="1">
          <mxGeometry x="470" y="630" width="20" height="20" as="geometry" />
        </mxCell>
        <mxCell id="zwTfYpXP-W-T_Ir1GxMR-70" style="edgeStyle=orthogonalEdgeStyle;rounded=1;orthogonalLoop=1;jettySize=auto;html=1;exitX=0.5;exitY=0;exitDx=0;exitDy=0;entryX=1;entryY=0.5;entryDx=0;entryDy=0;entryPerimeter=0;curved=0;" edge="1" parent="1" source="zwTfYpXP-W-T_Ir1GxMR-69" target="zwTfYpXP-W-T_Ir1GxMR-8">
          <mxGeometry relative="1" as="geometry" />
        </mxCell>
      </root>
    </mxGraphModel>
  </diagram>
</mxfile>
